<svg xmlns="http://www.w3.org/2000/svg" xmlns:xlink="http://www.w3.org/1999/xlink" height="200" width="400"><polygon points="0,200 0,100 1,99 2,100 3,101 4,102 5,103 6,102 7,103 8,102 9,103 10,104 11,105 12,104 13,105 14,106 15,107 16,108 17,107 18,106 19,107 20,108 21,109 22,110 23,111 24,112 25,113 26,112 27,113 28,114 29,115 30,116 31,117 32,118 33,117 34,118 35,117 36,116 37,115 38,114 39,113 40,112 41,113 42,114 43,115 44,116 45,115 46,116 47,117 48,118 49,117 50,116 51,115 52,116 53,115 54,114 55,115 56,116 57,117 58,118 59,119 60,118 61,119 62,118 63,117 64,118 65,119 66,118 67,117 68,118 69,119 70,120 71,119 72,118 73,117 74,118 75,117 76,118 77,119 78,120 79,119 80,120 81,121 82,120 83,119 84,118 85,119 86,120 87,121 88,122 89,123 90,124 91,125 92,126 93,125 94,124 95,125 96,126 97,125 98,126 99,125 100,126 101,125 102,126 103,127 104,126 105,125 106,124 107,123 108,122 109,121 110,122 111,121 112,122 113,123 114,124 115,125 116,126 117,125 118,124 119,123 120,124 121,125 122,126 123,127 124,126 125,127 126,128 127,129 128,130 129,131 130,132 131,133 132,132 133,131 134,132 135,131 136,130 137,129 138,128 139,127 140,126 141,127 142,128 143,127 144,128 145,127 146,126 147,127 148,126 149,127 150,126 151,127 152,128 153,127 154,126 155,127 156,128 157,129 158,130 159,129 160,128 161,127 162,126 163,127 164,126 165,125 166,124 167,123 168,122 169,123 170,124 171,125 172,124 173,125 174,124 175,125 176,126 177,127 178,126 179,127 180,128 181,129 182,128 183,127 184,126 185,127 186,126 187,127 188,126 189,127 190,128 191,127 192,128 193,129 194,128 195,127 196,126 197,125 198,124 199,125 200,124 201,125 202,124 203,125 204,126 205,127 206,126 207,127 208,126 209,125 210,126 211,125 212,126 213,125 214,124 215,125 216,126 217,127 218,128 219,129 220,130 221,129 222,128 223,127 224,126 225,125 226,124 227,125 228,124 229,123 230,124 231,123 232,124 233,123 234,122 235,121 236,122 237,121 238,120 239,119 240,118 241,117 242,118 243,117 244,118 245,119 246,118 247,119 248,118 249,119 250,120 251,119 252,118 253,119 254,118 255,119 256,120 257,121 258,120 259,119 260,120 261,121 262,120 263,121 264,122 265,123 266,124 267,125 268,124 269,125 270,126 271,125 272,124 273,123 274,122 275,121 276,120 277,119 278,120 279,121 280,122 281,121 282,122 283,121 284,120 285,119 286,118 287,119 288,120 289,121 290,122 291,123 292,122 293,121 294,122 295,121 296,120 297,119 298,118 299,117 300,118 301,119 302,120 303,119 304,120 305,121 306,122 307,121 308,122 309,123 310,122 311,123 312,124 313,125 314,124 315,123 316,124 317,125 318,124 319,123 320,124 321,123 322,122 323,121 324,120 325,121 326,120 327,121 328,122 329,123 330,124 331,123 332,124 333,125 334,124 335,125 336,126 337,125 338,126 339,125 340,126 341,125 342,126 343,127 344,126 345,125 346,126 347,125 348,126 349,127 350,126 351,127 352,126 353,125 354,126 355,127 356,126 357,125 358,126 359,125 360,126 361,125 362,124 363,123 364,122 365,123 366,124 367,125 368,124 369,123 370,122 371,123 372,124 373,125 374,124 375,123 376,124 377,123 378,122 379,121 380,122 381,121 382,120 383,121 384,122 385,121 386,120 387,119 388,120 389,119 390,118 391,119 392,118 393,119 394,118 395,117 396,116 397,115 398,116 399,117 400,200 " style="fill:rgb(8,39,38);stroke:rgb(0,0,0)"></polygon><polygon points="0,200 0,100 1,101 2,100 3,99 4,98 5,99 6,100 7,101 8,100 9,99 10,100 11,99 12,98 13,99 14,100 15,101 16,100 17,99 18,98 19,99 20,100 21,101 22,100 23,99 24,98 25,97 26,96 27,95 28,94 29,93 30,92 31,93 32,94 33,93 34,92 35,91 36,90 37,89 38,90 39,91 40,90 41,89 42,90 43,89 44,88 45,89 46,90 47,89 48,90 49,91 50,90 51,91 52,90 53,89 54,88 55,87 56,88 57,89 58,90 59,89 60,88 61,89 62,88 63,89 64,88 65,87 66,88 67,87 68,88 69,87 70,88 71,87 72,86 73,85 74,84 75,85 76,84 77,85 78,86 79,87 80,86 81,85 82,84 83,83 84,82 85,83 86,84 87,83 88,82 89,83 90,82 91,81 92,82 93,83 94,84 95,83 96,84 97,85 98,84 99,83 100,84 101,83 102,82 103,83 104,84 105,85 106,84 107,85 108,86 109,85 110,84 111,83 112,82 113,81 114,82 115,83 116,82 117,81 118,80 119,81 120,82 121,81 122,80 123,79 124,78 125,79 126,78 127,79 128,78 129,77 130,78 131,79 132,78 133,79 134,78 135,79 136,80 137,81 138,80 139,79 140,80 141,79 142,78 143,77 144,78 145,79 146,78 147,77 148,78 149,79 150,78 151,77 152,76 153,77 154,78 155,79 156,80 157,79 158,80 159,79 160,80 161,79 162,78 163,77 164,78 165,79 166,80 167,79 168,80 169,79 170,80 171,81 172,80 173,81 174,82 175,81 176,82 177,81 178,82 179,83 180,84 181,83 182,84 183,83 184,82 185,83 186,82 187,81 188,80 189,79 190,78 191,77 192,78 193,79 194,80 195,81 196,82 197,81 198,80 199,79 200,80 201,79 202,80 203,81 204,82 205,81 206,82 207,81 208,82 209,81 210,82 211,81 212,82 213,81 214,82 215,81 216,80 217,79 218,80 219,79 220,80 221,81 222,80 223,81 224,80 225,79 226,78 227,77 228,76 229,77 230,76 231,77 232,78 233,77 234,76 235,75 236,76 237,75 238,76 239,75 240,74 241,75 242,74 243,75 244,76 245,77 246,78 247,79 248,80 249,79 250,78 251,77 252,76 253,75 254,74 255,73 256,72 257,73 258,74 259,73 260,72 261,73 262,74 263,73 264,74 265,75 266,74 267,75 268,74 269,75 270,74 271,75 272,74 273,75 274,74 275,73 276,74 277,75 278,76 279,75 280,74 281,73 282,72 283,73 284,74 285,75 286,74 287,75 288,74 289,73 290,74 291,73 292,72 293,71 294,72 295,71 296,72 297,73 298,72 299,71 300,72 301,73 302,72 303,71 304,72 305,73 306,72 307,71 308,72 309,73 310,74 311,75 312,74 313,75 314,74 315,73 316,74 317,73 318,72 319,71 320,72 321,71 322,70 323,69 324,68 325,67 326,68 327,67 328,68 329,69 330,70 331,71 332,70 333,71 334,70 335,71 336,72 337,73 338,74 339,75 340,76 341,75 342,76 343,77 344,76 345,77 346,78 347,79 348,78 349,79 350,80 351,81 352,82 353,81 354,82 355,81 356,82 357,81 358,80 359,79 360,78 361,77 362,76 363,77 364,78 365,77 366,76 367,75 368,76 369,77 370,78 371,77 372,78 373,77 374,78 375,77 376,76 377,75 378,76 379,75 380,76 381,75 382,76 383,75 384,74 385,73 386,72 387,73 388,72 389,71 390,70 391,69 392,68 393,67 394,68 395,69 396,70 397,69 398,68 399,67 400,200 " style="fill:rgb(19,20,203);stroke:rgb(0,0,103)"></polygon><polygon points="0,200 0,100 1,99 2,98 3,99 4,98 5,97 6,98 7,97 8,96 9,97 10,98 11,99 12,100 13,101 14,100 15,101 16,100 17,99 18,100 19,99 20,100 21,101 22,102 23,101 24,100 25,101 26,102 27,101 28,100 29,101 30,102 31,103 32,104 33,103 34,104 35,103 36,102 37,103 38,104 39,103 40,104 41,103 42,104 43,103 44,104 45,105 46,104 47,103 48,104 49,103 50,102 51,101 52,102 53,101 54,102 55,101 56,100 57,101 58,100 59,99 60,98 61,97 62,98 63,99 64,100 65,101 66,100 67,99 68,100 69,99 70,98 71,97 72,96 73,95 74,94 75,93 76,92 77,91 78,90 79,91 80,90 81,91 82,90 83,89 84,90 85,89 86,90 87,91 88,92 89,93 90,92 91,91 92,90 93,91 94,90 95,89 96,88 97,87 98,86 99,85 100,86 101,87 102,86 103,87 104,86 105,87 106,88 107,89 108,88 109,89 110,88 111,87 112,88 113,87 114,86 115,87 116,86 117,87 118,86 119,85 120,86 121,85 122,86 123,87 124,88 125,89 126,90 127,89 128,90 129,89 130,88 131,89 132,88 133,87 134,86 135,87 136,88 137,87 138,88 139,87 140,86 141,85 142,86 143,85 144,84 145,85 146,86 147,85 148,84 149,83 150,82 151,81 152,82 153,83 154,84 155,85 156,84 157,83 158,82 159,81 160,82 161,83 162,82 163,83 164,84 165,83 166,84 167,83 168,84 169,83 170,82 171,81 172,82 173,83 174,84 175,85 176,86 177,85 178,84 179,85 180,86 181,85 182,84 183,85 184,84 185,83 186,84 187,83 188,84 189,85 190,86 191,87 192,86 193,85 194,86 195,85 196,86 197,85 198,86 199,87 200,88 201,89 202,88 203,89 204,90 205,91 206,90 207,89 208,88 209,87 210,88 211,87 212,88 213,89 214,90 215,91 216,90 217,91 218,90 219,91 220,90 221,91 222,92 223,93 224,94 225,95 226,96 227,95 228,94 229,93 230,92 231,93 232,92 233,91 234,92 235,93 236,94 237,95 238,96 239,97 240,96 241,95 242,94 243,93 244,94 245,95 246,96 247,97 248,96 249,97 250,96 251,97 252,96 253,95 254,94 255,93 256,94 257,93 258,94 259,93 260,94 261,93 262,94 263,93 264,92 265,91 266,90 267,91 268,90 269,91 270,92 271,91 272,90 273,89 274,88 275,87 276,86 277,85 278,84 279,83 280,82 281,83 282,82 283,81 284,82 285,81 286,82 287,83 288,82 289,83 290,84 291,85 292,84 293,85 294,86 295,87 296,88 297,89 298,88 299,87 300,86 301,87 302,86 303,87 304,86 305,85 306,84 307,85 308,86 309,87 310,86 311,85 312,84 313,85 314,84 315,85 316,84 317,83 318,84 319,85 320,84 321,83 322,84 323,83 324,84 325,83 326,82 327,81 328,80 329,81 330,80 331,79 332,80 333,81 334,80 335,79 336,78 337,79 338,78 339,77 340,76 341,77 342,76 343,77 344,78 345,79 346,78 347,79 348,78 349,77 350,76 351,75 352,76 353,77 354,76 355,77 356,78 357,79 358,78 359,79 360,80 361,79 362,78 363,79 364,80 365,81 366,80 367,81 368,82 369,83 370,82 371,81 372,82 373,81 374,82 375,81 376,80 377,79 378,80 379,79 380,80 381,79 382,78 383,77 384,76 385,77 386,78 387,77 388,78 389,77 390,76 391,75 392,76 393,77 394,76 395,75 396,76 397,77 398,78 399,79 400,200 " style="fill:rgb(183,141,62);stroke:rgb(83,41,0)"></polygon><polygon points="0,200 0,100 1,101 2,102 3,103 4,104 5,103 6,104 7,103 8,102 9,103 10,102 11,101 12,100 13,99 14,98 15,99 16,98 17,99 18,98 19,99 20,100 21,101 22,102 23,103 24,102 25,101 26,100 27,101 28,100 29,101 30,100 31,101 32,100 33,99 34,100 35,101 36,100 37,99 38,100 39,101 40,102 41,103 42,102 43,101 44,102 45,103 46,102 47,101 48,102 49,103 50,102 51,103 52,102 53,101 54,102 55,103 56,104 57,103 58,102 59,103 60,104 61,105 62,104 63,105 64,106 65,107 66,106 67,105 68,106 69,107 70,108 71,107 72,106 73,105 74,104 75,103 76,104 77,103 78,102 79,101 80,100 81,101 82,100 83,99 84,98 85,99 86,100 87,101 88,102 89,101 90,102 91,103 92,104 93,103 94,104 95,103 96,104 97,105 98,104 99,103 100,102 101,101 102,100 103,99 104,98 105,97 106,98 107,97 108,96 109,95 110,96 111,97 112,96 113,97 114,96 115,97 116,98 117,99 118,100 119,101 120,102 121,101 122,100 123,101 124,100 125,99 126,98 127,97 128,96 129,95 130,96 131,97 132,98 133,99 134,100 135,99 136,100 137,101 138,102 139,101 140,102 141,103 142,104 143,103 144,104 145,105 146,106 147,105 148,106 149,107 150,106 151,107 152,108 153,107 154,106 155,107 156,106 157,105 158,104 159,105 160,106 161,105 162,104 163,105 164,106 165,107 166,106 167,105 168,104 169,103 170,104 171,103 172,104 173,105 174,106 175,105 176,106 177,105 178,104 179,103 180,104 181,105 182,104 183,105 184,104 185,103 186,104 187,105 188,106 189,107 190,108 191,107 192,108 193,109 194,108 195,109 196,110 197,109 198,110 199,109 200,110 201,109 202,108 203,109 204,108 205,107 206,108 207,109 208,108 209,107 210,108 211,107 212,106 213,107 214,106 215,107 216,108 217,107 218,108 219,109 220,108 221,109 222,110 223,109 224,108 225,107 226,108 227,107 228,108 229,107 230,108 231,107 232,106 233,107 234,106 235,107 236,106 237,107 238,108 239,107 240,108 241,109 242,108 243,107 244,106 245,105 246,104 247,105 248,104 249,103 250,104 251,103 252,102 253,101 254,102 255,103 256,102 257,101 258,100 259,99 260,100 261,99 262,100 263,99 264,100 265,101 266,102 267,103 268,102 269,103 270,104 271,105 272,106 273,105 274,104 275,103 276,102 277,101 278,100 279,99 280,100 281,101 282,100 283,99 284,100 285,101 286,102 287,103 288,102 289,101 290,102 291,101 292,100 293,101 294,102 295,101 296,100 297,101 298,100 299,99 300,100 301,101 302,102 303,101 304,102 305,101 306,100 307,101 308,100 309,99 310,98 311,97 312,96 313,97 314,96 315,97 316,96 317,97 318,96 319,97 320,98 321,97 322,96 323,97 324,96 325,97 326,96 327,95 328,96 329,95 330,96 331,95 332,96 333,97 334,98 335,99 336,100 337,101 338,100 339,99 340,98 341,99 342,98 343,97 344,98 345,99 346,98 347,97 348,96 349,95 350,96 351,95 352,96 353,95 354,96 355,97 356,96 357,97 358,96 359,97 360,98 361,97 362,98 363,99 364,98 365,99 366,98 367,97 368,98 369,99 370,98 371,99 372,100 373,101 374,100 375,101 376,100 377,101 378,100 379,99 380,100 381,99 382,100 383,99 384,98 385,99 386,98 387,97 388,98 389,99 390,100 391,99 392,98 393,99 394,100 395,99 396,100 397,99 398,98 399,99 400,200 " style="fill:rgb(1,137,120);stroke:rgb(0,37,20)"></polygon><polygon points="0,200 0,100 1,99 2,98 3,99 4,100 5,101 6,102 7,101 8,102 9,103 10,102 11,103 12,104 13,105 14,106 15,107 16,106 17,107 18,108 19,107 20,108 21,107 22,106 23,105 24,104 25,105 26,104 27,105 28,106 29,105 30,104 31,103 32,102 33,101 34,102 35,103 36,102 37,103 38,104 39,105 40,106 41,105 42,106 43,105 44,104 45,105 46,106 47,107 48,106 49,105 50,106 51,105 52,106 53,105 54,104 55,105 56,106 57,105 58,104 59,103 60,102 61,101 62,100 63,101 64,100 65,99 66,100 67,101 68,102 69,103 70,104 71,103 72,104 73,105 74,106 75,107 76,108 77,107 78,106 79,105 80,106 81,107 82,108 83,109 84,108 85,109 86,110 87,111 88,112 89,111 90,110 91,109 92,108 93,107 94,108 95,107 96,106 97,107 98,106 99,105 100,104 101,105 102,106 103,107 104,106 105,107 106,106 107,105 108,106 109,107 110,106 111,107 112,108 113,107 114,108 115,109 116,108 117,109 118,110 119,111 120,110 121,109 122,108 123,109 124,108 125,109 126,108 127,107 128,106 129,105 130,104 131,103 132,104 133,105 134,104 135,103 136,102 137,101 138,102 139,103 140,104 141,103 142,104 143,103 144,104 145,103 146,102 147,103 148,102 149,103 150,104 151,105 152,106 153,107 154,106 155,105 156,106 157,105 158,104 159,105 160,106 161,107 162,106 163,107 164,106 165,105 166,104 167,105 168,104 169,105 170,106 171,107 172,106 173,107 174,108 175,109 176,108 177,107 178,106 179,105 180,106 181,105 182,104 183,105 184,106 185,107 186,106 187,107 188,108 189,107 190,108 191,107 192,106 193,107 194,106 195,107 196,108 197,109 198,110 199,109 200,108 201,109 202,108 203,109 204,110 205,111 206,112 207,111 208,110 209,111 210,112 211,111 212,112 213,113 214,112 215,111 216,112 217,111 218,110 219,109 220,110 221,109 222,108 223,107 224,108 225,107 226,108 227,109 228,108 229,107 230,106 231,107 232,106 233,105 234,104 235,105 236,106 237,107 238,106 239,107 240,108 241,107 242,106 243,107 244,106 245,107 246,108 247,107 248,108 249,109 250,110 251,111 252,112 253,113 254,114 255,115 256,114 257,113 258,112 259,111 260,110 261,111 262,110 263,111 264,112 265,111 266,110 267,111 268,112 269,113 270,114 271,113 272,114 273,113 274,112 275,111 276,112 277,113 278,112 279,111 280,112 281,113 282,114 283,113 284,114 285,115 286,114 287,115 288,114 289,113 290,112 291,111 292,112 293,113 294,114 295,113 296,112 297,113 298,114 299,113 300,114 301,115 302,114 303,113 304,114 305,113 306,114 307,113 308,114 309,115 310,116 311,117 312,116 313,115 314,116 315,117 316,118 317,119 318,118 319,119 320,118 321,119 322,118 323,117 324,116 325,115 326,114 327,113 328,112 329,111 330,112 331,111 332,112 333,111 334,112 335,113 336,112 337,111 338,110 339,111 340,110 341,109 342,110 343,111 344,110 345,109 346,110 347,111 348,112 349,111 350,110 351,109 352,108 353,109 354,110 355,111 356,110 357,111 358,110 359,109 360,110 361,109 362,108 363,107 364,106 365,107 366,108 367,107 368,106 369,105 370,106 371,107 372,106 373,105 374,106 375,105 376,104 377,103 378,104 379,103 380,104 381,103 382,102 383,101 384,100 385,101 386,100 387,101 388,102 389,103 390,104 391,105 392,106 393,107 394,108 395,109 396,110 397,111 398,110 399,111 400,200 " style="fill:rgb(37,54,97);stroke:rgb(0,0,0)"></polygon><polygon points="0,200 0,100 1,99 2,98 3,99 4,100 5,101 6,102 7,103 8,102 9,101 10,102 11,101 12,102 13,103 14,104 15,105 16,104 17,105 18,104 19,105 20,106 21,105 22,104 23,105 24,106 25,105 26,106 27,107 28,106 29,107 30,108 31,107 32,106 33,107 34,106 35,107 36,106 37,107 38,108 39,109 40,108 41,107 42,106 43,105 44,104 45,103 46,104 47,103 48,104 49,103 50,102 51,101 52,100 53,101 54,100 55,99 56,98 57,99 58,98 59,99 60,100 61,101 62,102 63,101 64,100 65,101 66,100 67,99 68,100 69,99 70,98 71,99 72,100 73,101 74,102 75,101 76,100 77,101 78,100 79,99 80,98 81,99 82,98 83,99 84,100 85,101 86,102 87,101 88,102 89,103 90,104 91,103 92,102 93,101 94,100 95,101 96,102 97,101 98,100 99,101 100,100 101,101 102,102 103,101 104,102 105,101 106,100 107,99 108,100 109,99 110,100 111,101 112,102 113,103 114,104 115,105 116,106 117,105 118,106 119,105 120,106 121,105 122,104 123,103 124,104 125,103 126,102 127,103 128,102 129,103 130,102 131,103 132,104 133,105 134,106 135,105 136,106 137,105 138,106 139,107 140,108 141,107 142,108 143,107 144,106 145,105 146,106 147,105 148,104 149,103 150,102 151,103 152,102 153,103 154,102 155,101 156,102 157,101 158,102 159,101 160,100 161,101 162,100 163,101 164,100 165,99 166,98 167,97 168,98 169,99 170,98 171,99 172,100 173,99 174,98 175,97 176,98 177,99 178,98 179,99 180,100 181,99 182,100 183,101 184,100 185,101 186,102 187,101 188,100 189,101 190,100 191,99 192,100 193,99 194,100 195,99 196,98 197,97 198,96 199,97 200,98 201,97 202,98 203,97 204,96 205,95 206,94 207,95 208,94 209,95 210,96 211,95 212,94 213,95 214,96 215,95 216,94 217,93 218,94 219,93 220,92 221,93 222,92 223,91 224,90 225,91 226,92 227,93 228,94 229,95 230,94 231,95 232,96 233,95 234,96 235,97 236,96 237,95 238,96 239,97 240,96 241,95 242,96 243,97 244,98 245,99 246,98 247,99 248,98 249,97 250,98 251,97 252,96 253,97 254,98 255,99 256,100 257,99 258,98 259,97 260,96 261,95 262,96 263,95 264,96 265,95 266,94 267,95 268,96 269,97 270,96 271,97 272,98 273,97 274,96 275,95 276,96 277,97 278,98 279,99 280,100 281,99 282,98 283,97 284,98 285,97 286,98 287,99 288,98 289,99 290,100 291,101 292,100 293,99 294,100 295,99 296,100 297,101 298,102 299,101 300,100 301,99 302,98 303,97 304,96 305,95 306,94 307,95 308,96 309,97 310,98 311,97 312,96 313,97 314,96 315,95 316,96 317,95 318,94 319,95 320,94 321,95 322,96 323,97 324,98 325,97 326,96 327,95 328,94 329,93 330,94 331,93 332,92 333,93 334,94 335,93 336,92 337,91 338,90 339,89 340,88 341,89 342,88 343,87 344,86 345,87 346,88 347,89 348,90 349,91 350,92 351,93 352,92 353,93 354,92 355,93 356,94 357,93 358,94 359,95 360,94 361,95 362,94 363,93 364,94 365,93 366,94 367,95 368,96 369,95 370,96 371,95 372,96 373,95 374,94 375,93 376,92 377,91 378,90 379,91 380,90 381,91 382,92 383,93 384,92 385,93 386,94 387,95 388,96 389,95 390,96 391,97 392,98 393,99 394,98 395,99 396,100 397,99 398,100 399,99 400,200 " style="fill:rgb(62,83,115);stroke:rgb(0,0,15)"></polygon><polygon points="0,200 0,100 1,101 2,102 3,103 4,104 5,105 6,106 7,105 8,106 9,105 10,106 11,107 12,106 13,105 14,106 15,105 16,106 17,107 18,108 19,107 20,108 21,107 22,106 23,105 24,106 25,107 26,106 27,105 28,106 29,105 30,104 31,103 32,102 33,103 34,104 35,103 36,104 37,103 38,104 39,105 40,104 41,105 42,104 43,105 44,106 45,107 46,106 47,107 48,106 49,107 50,108 51,107 52,106 53,105 54,106 55,105 56,106 57,105 58,104 59,103 60,104 61,105 62,104 63,105 64,106 65,107 66,108 67,107 68,108 69,109 70,108 71,109 72,108 73,109 74,108 75,109 76,110 77,109 78,110 79,109 80,110 81,111 82,112 83,111 84,110 85,111 86,110 87,109 88,110 89,109 90,108 91,107 92,108 93,109 94,110 95,111 96,110 97,109 98,108 99,109 100,110 101,109 102,108 103,109 104,110 105,111 106,110 107,109 108,108 109,109 110,108 111,109 112,108 113,109 114,108 115,109 116,110 117,109 118,110 119,109 120,110 121,111 122,112 123,111 124,110 125,109 126,110 127,109 128,110 129,109 130,110 131,109 132,110 133,109 134,108 135,107 136,106 137,105 138,106 139,105 140,104 141,103 142,104 143,103 144,104 145,105 146,104 147,105 148,106 149,107 150,108 151,107 152,106 153,105 154,104 155,103 156,104 157,105 158,106 159,105 160,104 161,105 162,104 163,103 164,102 165,101 166,100 167,99 168,100 169,99 170,100 171,99 172,100 173,99 174,98 175,97 176,98 177,97 178,98 179,97 180,98 181,97 182,98 183,97 184,98 185,97 186,98 187,97 188,98 189,99 190,98 191,97 192,98 193,97 194,96 195,97 196,98 197,97 198,98 199,97 200,96 201,95 202,94 203,95 204,94 205,93 206,94 207,95 208,96 209,95 210,94 211,95 212,94 213,95 214,94 215,95 216,94 217,95 218,94 219,93 220,94 221,93 222,92 223,91 224,92 225,91 226,92 227,93 228,92 229,91 230,90 231,89 232,90 233,91 234,90 235,91 236,90 237,89 238,88 239,87 240,88 241,87 242,88 243,89 244,88 245,87 246,86 247,87 248,88 249,89 250,90 251,89 252,90 253,89 254,90 255,91 256,90 257,91 258,92 259,91 260,92 261,93 262,94 263,93 264,92 265,93 266,92 267,91 268,92 269,91 270,92 271,93 272,94 273,95 274,96 275,95 276,94 277,95 278,96 279,97 280,98 281,99 282,98 283,99 284,100 285,101 286,102 287,101 288,100 289,101 290,102 291,103 292,104 293,105 294,104 295,105 296,106 297,105 298,106 299,107 300,108 301,109 302,110 303,109 304,108 305,109 306,110 307,109 308,110 309,111 310,112 311,111 312,112 313,111 314,112 315,113 316,112 317,111 318,112 319,111 320,110 321,111 322,110 323,111 324,112 325,113 326,114 327,113 328,114 329,113 330,114 331,115 332,116 333,115 334,116 335,115 336,116 337,115 338,114 339,113 340,114 341,113 342,114 343,113 344,112 345,111 346,110 347,109 348,108 349,107 350,106 351,105 352,106 353,105 354,104 355,103 356,104 357,103 358,102 359,103 360,102 361,101 362,102 363,101 364,100 365,99 366,100 367,99 368,98 369,99 370,100 371,101 372,100 373,99 374,98 375,99 376,100 377,101 378,100 379,101 380,100 381,99 382,98 383,99 384,100 385,99 386,98 387,99 388,100 389,99 390,100 391,99 392,100 393,101 394,100 395,99 396,98 397,97 398,96 399,97 400,200 " style="fill:rgb(101,25,211);stroke:rgb(1,0,111)"></polygon><polygon points="0,200 0,100 1,101 2,100 3,99 4,100 5,101 6,100 7,99 8,100 9,101 10,100 11,99 12,98 13,99 14,98 15,97 16,98 17,97 18,98 19,97 20,96 21,97 22,98 23,97 24,96 25,95 26,96 27,95 28,96 29,97 30,96 31,97 32,96 33,95 34,96 35,95 36,96 37,97 38,96 39,95 40,94 41,95 42,94 43,95 44,96 45,95 46,94 47,93 48,92 49,93 50,92 51,91 52,90 53,89 54,90 55,91 56,90 57,89 58,88 59,89 60,88 61,87 62,86 63,87 64,88 65,89 66,90 67,89 68,88 69,89 70,90 71,89 72,90 73,89 74,90 75,91 76,90 77,89 78,88 79,89 80,88 81,87 82,86 83,85 84,86 85,85 86,84 87,85 88,84 89,83 90,84 91,83 92,82 93,83 94,84 95,85 96,86 97,85 98,86 99,85 100,86 101,85 102,86 103,87 104,86 105,87 106,88 107,87 108,86 109,87 110,88 111,87 112,86 113,87 114,88 115,87 116,86 117,85 118,84 119,85 120,84 121,83 122,82 123,81 124,80 125,81 126,80 127,79 128,78 129,79 130,80 131,79 132,78 133,77 134,78 135,77 136,78 137,79 138,80 139,81 140,80 141,81 142,80 143,79 144,78 145,79 146,80 147,79 148,78 149,77 150,78 151,77 152,76 153,75 154,74 155,75 156,76 157,75 158,74 159,73 160,72 161,71 162,72 163,71 164,72 165,73 166,72 167,73 168,74 169,73 170,74 171,73 172,72 173,73 174,72 175,71 176,70 177,71 178,72 179,73 180,72 181,71 182,72 183,71 184,70 185,69 186,68 187,69 188,70 189,69 190,68 191,67 192,66 193,65 194,66 195,65 196,66 197,65 198,64 199,63 200,64 201,63 202,64 203,65 204,64 205,63 206,62 207,63 208,62 209,63 210,64 211,63 212,62 213,61 214,62 215,61 216,62 217,63 218,62 219,63 220,64 221,63 222,62 223,63 224,64 225,65 226,66 227,67 228,66 229,65 230,66 231,65 232,66 233,65 234,66 235,65 236,66 237,65 238,66 239,65 240,64 241,65 242,64 243,65 244,66 245,65 246,64 247,63 248,62 249,63 250,64 251,63 252,64 253,65 254,64 255,65 256,66 257,65 258,66 259,67 260,68 261,69 262,68 263,67 264,68 265,67 266,68 267,69 268,68 269,67 270,66 271,67 272,66 273,65 274,66 275,65 276,66 277,65 278,64 279,63 280,64 281,63 282,64 283,63 284,64 285,65 286,66 287,65 288,64 289,65 290,64 291,63 292,64 293,65 294,64 295,63 296,64 297,65 298,66 299,65 300,66 301,65 302,66 303,67 304,68 305,69 306,70 307,69 308,68 309,69 310,68 311,67 312,66 313,67 314,66 315,67 316,68 317,67 318,68 319,69 320,70 321,69 322,68 323,69 324,68 325,69 326,70 327,69 328,70 329,69 330,68 331,67 332,66 333,65 334,66 335,65 336,66 337,65 338,66 339,67 340,68 341,69 342,68 343,67 344,66 345,67 346,68 347,67 348,68 349,69 350,70 351,69 352,70 353,71 354,72 355,73 356,72 357,71 358,72 359,73 360,74 361,73 362,72 363,73 364,72 365,71 366,70 367,69 368,70 369,71 370,70 371,69 372,70 373,71 374,70 375,69 376,70 377,69 378,70 379,69 380,70 381,71 382,70 383,71 384,70 385,69 386,68 387,67 388,68 389,67 390,68 391,67 392,66 393,65 394,64 395,63 396,64 397,63 398,62 399,61 400,200 " style="fill:rgb(127,77,222);stroke:rgb(27,0,122)"></polygon><polygon points="0,200 0,100 1,99 2,98 3,97 4,98 5,97 6,98 7,97 8,98 9,97 10,96 11,95 12,94 13,93 14,94 15,93 16,94 17,93 18,92 19,93 20,94 21,93 22,94 23,95 24,94 25,93 26,92 27,91 28,92 29,93 30,94 31,93 32,94 33,93 34,92 35,91 36,92 37,91 38,90 39,89 40,90 41,89 42,88 43,89 44,90 45,89 46,90 47,91 48,90 49,89 50,88 51,87 52,86 53,87 54,86 55,87 56,88 57,87 58,88 59,89 60,90 61,91 62,92 63,93 64,94 65,93 66,94 67,93 68,94 69,95 70,96 71,95 72,96 73,95 74,94 75,93 76,92 77,93 78,92 79,91 80,92 81,91 82,90 83,91 84,90 85,89 86,90 87,89 88,90 89,91 90,92 91,93 92,94 93,95 94,96 95,97 96,98 97,99 98,98 99,99 100,100 101,101 102,100 103,101 104,100 105,99 106,100 107,101 108,100 109,101 110,102 111,103 112,102 113,101 114,102 115,101 116,100 117,99 118,98 119,97 120,96 121,97 122,98 123,97 124,98 125,99 126,98 127,99 128,98 129,99 130,100 131,101 132,102 133,103 134,104 135,105 136,104 137,103 138,104 139,103 140,102 141,101 142,102 143,101 144,102 145,101 146,100 147,101 148,100 149,101 150,100 151,99 152,100 153,101 154,102 155,103 156,104 157,103 158,104 159,105 160,104 161,103 162,102 163,103 164,104 165,105 166,104 167,103 168,102 169,103 170,102 171,103 172,102 173,103 174,102 175,103 176,102 177,103 178,104 179,105 180,104 181,103 182,104 183,105 184,106 185,105 186,106 187,107 188,106 189,105 190,106 191,107 192,108 193,109 194,110 195,111 196,112 197,111 198,110 199,111 200,110 201,109 202,110 203,109 204,108 205,109 206,108 207,107 208,106 209,107 210,106 211,107 212,108 213,109 214,108 215,109 216,110 217,109 218,110 219,109 220,110 221,109 222,110 223,109 224,108 225,109 226,108 227,109 228,110 229,111 230,112 231,113 232,112 233,111 234,112 235,113 236,114 237,113 238,114 239,115 240,116 241,117 242,118 243,119 244,118 245,117 246,116 247,117 248,118 249,119 250,120 251,121 252,120 253,119 254,118 255,117 256,116 257,115 258,116 259,117 260,116 261,117 262,118 263,117 264,118 265,119 266,118 267,119 268,120 269,119 270,118 271,119 272,120 273,119 274,118 275,119 276,120 277,119 278,120 279,119 280,120 281,119 282,120 283,119 284,120 285,119 286,120 287,119 288,120 289,121 290,122 291,123 292,122 293,123 294,124 295,123 296,122 297,123 298,122 299,121 300,122 301,121 302,120 303,119 304,120 305,119 306,120 307,119 308,118 309,117 310,118 311,117 312,116 313,115 314,114 315,115 316,114 317,113 318,112 319,113 320,114 321,113 322,112 323,113 324,112 325,111 326,110 327,109 328,110 329,109 330,108 331,109 332,108 333,109 334,110 335,109 336,108 337,109 338,110 339,111 340,110 341,111 342,112 343,113 344,112 345,113 346,112 347,113 348,114 349,113 350,114 351,115 352,116 353,117 354,118 355,117 356,116 357,117 358,116 359,117 360,116 361,117 362,118 363,119 364,118 365,119 366,118 367,117 368,116 369,117 370,116 371,115 372,114 373,113 374,112 375,111 376,110 377,111 378,112 379,113 380,112 381,111 382,112 383,111 384,112 385,113 386,114 387,113 388,112 389,111 390,110 391,111 392,110 393,111 394,112 395,111 396,112 397,111 398,110 399,111 400,200 " style="fill:rgb(237,252,197);stroke:rgb(137,152,97)"></polygon><polygon points="0,200 0,100 1,99 2,98 3,97 4,98 5,97 6,98 7,97 8,96 9,95 10,96 11,97 12,98 13,99 14,100 15,99 16,98 17,97 18,98 19,97 20,96 21,95 22,94 23,93 24,92 25,91 26,92 27,93 28,94 29,95 30,94 31,93 32,92 33,91 34,90 35,91 36,90 37,91 38,90 39,89 40,88 41,89 42,90 43,91 44,92 45,93 46,94 47,93 48,92 49,91 50,92 51,91 52,92 53,91 54,92 55,93 56,92 57,93 58,94 59,95 60,96 61,95 62,94 63,95 64,96 65,97 66,96 67,95 68,96 69,95 70,94 71,95 72,96 73,97 74,98 75,99 76,98 77,99 78,100 79,99 80,98 81,97 82,96 83,97 84,98 85,97 86,96 87,95 88,96 89,95 90,94 91,93 92,94 93,93 94,92 95,93 96,92 97,91 98,92 99,93 100,92 101,91 102,92 103,91 104,92 105,93 106,94 107,93 108,92 109,93 110,92 111,91 112,92 113,93 114,94 115,93 116,92 117,91 118,92 119,91 120,92 121,93 122,92 123,93 124,94 125,93 126,94 127,93 128,94 129,95 130,96 131,97 132,98 133,97 134,96 135,95 136,96 137,95 138,96 139,97 140,96 141,95 142,96 143,95 144,94 145,95 146,96 147,95 148,96 149,95 150,94 151,93 152,92 153,91 154,90 155,91 156,92 157,91 158,92 159,93 160,94 161,93 162,92 163,93 164,94 165,95 166,96 167,97 168,96 169,95 170,96 171,95 172,94 173,95 174,96 175,95 176,94 177,95 178,94 179,95 180,94 181,93 182,94 183,93 184,92 185,93 186,94 187,93 188,94 189,95 190,94 191,95 192,96 193,95 194,96 195,95 196,94 197,95 198,96 199,97 200,96 201,97 202,98 203,97 204,98 205,97 206,98 207,97 208,98 209,99 210,98 211,99 212,100 213,101 214,100 215,99 216,98 217,99 218,100 219,101 220,102 221,103 222,104 223,103 224,104 225,103 226,104 227,105 228,106 229,107 230,108 231,107 232,108 233,107 234,108 235,109 236,108 237,109 238,108 239,107 240,108 241,109 242,108 243,107 244,108 245,109 246,108 247,107 248,108 249,107 250,108 251,109 252,108 253,109 254,108 255,107 256,108 257,107 258,106 259,107 260,106 261,105 262,106 263,107 264,106 265,105 266,104 267,105 268,104 269,105 270,106 271,107 272,106 273,107 274,108 275,109 276,110 277,109 278,110 279,109 280,108 281,109 282,110 283,109 284,108 285,109 286,110 287,109 288,108 289,107 290,108 291,109 292,108 293,107 294,108 295,109 296,108 297,109 298,108 299,109 300,108 301,109 302,108 303,109 304,110 305,111 306,112 307,113 308,114 309,115 310,114 311,113 312,114 313,115 314,116 315,115 316,116 317,117 318,116 319,117 320,118 321,119 322,118 323,119 324,118 325,119 326,120 327,119 328,120 329,119 330,118 331,117 332,118 333,119 334,118 335,119 336,120 337,121 338,120 339,119 340,120 341,121 342,122 343,121 344,120 345,119 346,118 347,117 348,116 349,115 350,116 351,117 352,116 353,115 354,116 355,117 356,118 357,117 358,118 359,119 360,118 361,119 362,118 363,117 364,116 365,117 366,118 367,117 368,116 369,115 370,114 371,113 372,112 373,111 374,110 375,111 376,110 377,109 378,110 379,109 380,108 381,109 382,108 383,109 384,110 385,111 386,110 387,109 388,108 389,109 390,110 391,109 392,110 393,109 394,108 395,109 396,110 397,109 398,110 399,109 400,200 " style="fill:rgb(16,234,162);stroke:rgb(0,134,62)"></polygon></svg>